<svg xmlns="http://www.w3.org/2000/svg" viewBox="0 0 100 100" id="financial-report">
  <rect width="7.82" height="30.47" x="48.67" y="22.86" fill="#50b792"></rect>
  <rect width="7.82" height="24.66" x="31.28" y="28.67" fill="#50b792"></rect>
  <path fill="#50b792" d="M6.07,70H93.93V13.6H6.07Zm52-6.19H12.36V60.74H58Zm7.84-34.92H87.64V32H65.86Zm0,10.74H87.64V42.7H65.86Zm0,10.74H87.64v3.07H65.86Zm-20.26-29a1.54,1.54,0,0,1,1.53-1.54H58a1.54,1.54,0,0,1,1.54,1.54V54.86A1.54,1.54,0,0,1,58,56.4H47.13a1.54,1.54,0,0,1-1.53-1.54Zm-17.39,5.8a1.53,1.53,0,0,1,1.53-1.53h10.9a1.53,1.53,0,0,1,1.53,1.53V54.86a1.54,1.54,0,0,1-1.53,1.54H29.74a1.54,1.54,0,0,1-1.53-1.54ZM10.82,32.61a1.54,1.54,0,0,1,1.54-1.53H23.25a1.54,1.54,0,0,1,1.53,1.53V54.86a1.54,1.54,0,0,1-1.53,1.54H12.36a1.54,1.54,0,0,1-1.54-1.54Z"></path>
  <rect width="7.82" height="19.18" x="13.89" y="34.15" fill="#50b792"></rect>
  <path fill="#333" d="M97,10.53H3V73.07H29L15.69,87.38l2.25,2.09,15.21-16.4h33.7l15.21,16.4,2.25-2.09L71,73.07H97ZM93.93,70H6.07V13.6H93.93Z"></path>
  <path fill="#fff" d="M12.36 56.4H23.25a1.54 1.54 0 001.53-1.54V32.61a1.54 1.54 0 00-1.53-1.53H12.36a1.54 1.54 0 00-1.54 1.53V54.86A1.54 1.54 0 0012.36 56.4zm1.53-22.25h7.82V53.33H13.89zM29.74 56.4h10.9a1.54 1.54 0 001.53-1.54V27.13a1.53 1.53 0 00-1.53-1.53H29.74a1.53 1.53 0 00-1.53 1.53V54.86A1.54 1.54 0 0029.74 56.4zm1.54-27.73H39.1V53.33H31.28zM47.13 56.4H58a1.54 1.54 0 001.54-1.54V21.33A1.54 1.54 0 0058 19.79H47.13a1.54 1.54 0 00-1.53 1.54V54.86A1.54 1.54 0 0047.13 56.4zm1.54-33.54h7.82V53.33H48.67z"></path>
  <rect width="21.78" height="3.07" x="65.86" y="28.89" fill="#fff"></rect>
  <rect width="21.78" height="3.07" x="65.86" y="39.63" fill="#fff"></rect>
  <rect width="21.78" height="3.07" x="65.86" y="50.37" fill="#fff"></rect>
  <rect width="45.67" height="3.07" x="12.36" y="60.74" fill="#fff"></rect>
</svg>
